<svg width="34" height="26" viewBox="0 0 34 26" fill="none" xmlns="http://www.w3.org/2000/svg">
<path d="M31.4059 0.245494L2.02715 0.0170663C1.86646 -0.00496037 1.71168 -0.00512 1.56304 0.01344L1.53653 0.0132789L1.53851 0.0174927C1.0672 0.0833061 0.664801 0.330346 0.398561 0.658612C-0.166185 1.35493 -0.0855458 2.41419 0.357814 3.24192C1.45536 5.29141 2.67093 7.27787 3.7656 9.32885C4.49376 10.6938 5.51323 11.3866 7.08949 11.3574C9.61072 11.3108 12.134 11.3717 14.6554 11.3299C15.4887 11.3161 16.5313 11.3909 16.7807 12.0399C17.4717 13.8382 18.6824 15.3375 19.4133 17.0974C19.7127 17.8185 19.3014 18.2706 18.8588 18.5689C18.0793 19.0942 18.1395 18.1302 17.966 17.849C16.7383 15.8594 15.9754 13.4588 12.8043 13.7355C12.1908 13.789 11.3867 13.834 11.0505 14.0856C10.5732 14.4427 10.7655 15.2506 11.1155 15.9055C12.4351 18.3764 13.5431 20.9727 15.011 23.349C16.7855 26.222 20.0749 26.4861 21.8687 23.3714C22.3732 22.4954 22.8258 21.5797 23.4165 20.7649C24.9548 18.6428 24.7513 16.4966 23.5942 14.3367C22.4409 12.1842 21.2343 10.0601 20.0403 7.92965C19.6179 7.17616 19.0035 6.87429 18.0901 6.89493C15.3234 6.95744 12.5514 6.84197 9.7872 6.94586C8.13446 7.00789 7.38267 6.18901 6.876 4.70384C14.2334 4.70384 21.4808 4.70395 28.728 4.70357C29.7532 4.70357 30.7519 4.54709 31.7682 4.39179C33.4685 4.13205 33.6177 2.81488 33.6257 1.73685C33.6345 0.566611 32.6314 0.237598 31.406 0.245331L31.4059 0.245494ZM31.3473 3.26197C30.5758 3.52811 29.8288 3.59861 29.043 3.59835C21.7897 3.59616 14.5365 3.59531 7.2832 3.59845C5.61366 3.5992 5.1575 4.24699 5.84944 5.79125C6.45205 7.13621 7.43003 8.04224 9.04582 8.03013C11.8118 8.00949 14.5782 8.03963 17.3441 8.01488C18.1269 8.00784 18.6226 8.14373 19.0713 8.95749C20.4463 11.4502 22.0942 13.7911 23.1614 16.4557C23.5229 17.3585 23.5115 18.2164 23.0207 19.0527C22.2067 20.4402 21.4638 21.8798 20.5359 23.1878C19.3163 24.9076 17.1873 24.6464 16.1666 22.7647C14.8057 20.2555 13.4213 17.7591 12.0151 15.1992C14.3463 14.4793 15.6515 15.4197 16.3423 17.4579C16.4756 17.8511 16.6706 18.2231 16.834 18.6062C17.3037 19.7079 18.0955 20.6773 19.3049 20.125C20.5091 19.575 21.0338 18.1401 20.5858 16.944C19.8834 15.0691 18.87 13.2922 17.8304 11.5692C17.2518 10.6106 16.2406 10.185 15.0217 10.2186C12.6263 10.2847 10.2187 10.1131 7.8336 10.2829C6.29664 10.3923 5.3264 9.69626 4.66464 8.59114C3.53408 6.70362 2.63509 4.67904 1.55968 2.75627C0.993334 1.74347 1.09557 1.36805 2.33547 1.37093C11.9244 1.39365 21.5134 1.37893 31.1026 1.39962C31.5007 1.40042 32.1661 1.06133 32.2329 1.89989C32.2864 2.57557 32.1052 3.00043 31.3474 3.26197H31.3473Z" fill="white"/>
<path d="M28.9408 6.9108C28.0855 6.94814 27.2271 6.91768 26.3699 6.91768C25.8189 6.91758 25.2678 6.91752 24.7169 6.91768C22.38 6.91843 21.991 7.54312 23.0858 9.67368C23.7372 10.941 24.4545 12.1771 25.1964 13.3943C25.8941 14.5391 26.9031 14.6483 27.5723 13.5719C28.5413 12.0136 29.4249 10.3917 30.2086 8.7324C30.7492 7.58776 30.3574 6.84894 28.9408 6.9108ZM27.1326 11.8301C26.6829 12.6996 26.1784 12.9153 25.6672 11.9015C25.0368 10.6515 24.4533 9.3779 23.8471 8.10958H29.0638C28.3641 9.45715 27.7469 10.6429 27.1326 11.8301Z" fill="white"/>
</svg>
